<?xml version="1.0" encoding="UTF-8" standalone="no"?>
<!-- Created with Inkscape (http://www.inkscape.org/) -->

<svg
   version="1.1"
   id="svg1"
   width="755.90668"
   height="377.95334"
   viewBox="0 0 755.90668 377.95334"
   sodipodi:docname="vectorstock_22125911.ai"
   xmlns:inkscape="http://www.inkscape.org/namespaces/inkscape"
   xmlns:sodipodi="http://sodipodi.sourceforge.net/DTD/sodipodi-0.dtd"
   xmlns="http://www.w3.org/2000/svg"
   xmlns:svg="http://www.w3.org/2000/svg">
  <defs
     id="defs1">
    <linearGradient
       x1="0"
       y1="0"
       x2="1"
       y2="0"
       gradientUnits="userSpaceOnUse"
       gradientTransform="matrix(30.379555,169.80571,169.80571,-30.379555,600.77081,31.370672)"
       spreadMethod="pad"
       id="linearGradient283">
      <stop
         style="stop-opacity:1;stop-color:#000071"
         offset="0"
         id="stop280" />
      <stop
         style="stop-opacity:1;stop-color:#000071"
         offset="0.310526"
         id="stop281" />
      <stop
         style="stop-opacity:1;stop-color:#000071"
         offset="0.36917967"
         id="stop282" />
      <stop
         style="stop-opacity:1;stop-color:#8f19da"
         offset="1"
         id="stop283" />
    </linearGradient>
  </defs>
  <sodipodi:namedview
     id="namedview1"
     pagecolor="#ffffff"
     bordercolor="#999999"
     borderopacity="1"
     inkscape:showpageshadow="0"
     inkscape:pageopacity="0"
     inkscape:pagecheckerboard="0"
     inkscape:deskcolor="#d1d1d1">
    <inkscape:page
       x="0"
       y="0"
       inkscape:label="1"
       id="page1"
       width="755.90668"
       height="377.95334"
       margin="0"
       bleed="0"
       inkscape:export-filename="..\..\Users\alban\html_files\img3\2.svg"
       inkscape:export-xdpi="96"
       inkscape:export-ydpi="96" />
  </sodipodi:namedview>
  <g
     id="g1"
     inkscape:groupmode="layer"
     inkscape:label="1">
    <g
       id="group-MC0"
       style="display:inline">
      <path
         id="path283"
         d="m 532.723,133.6 c -6.889,6.742 -17.032,9.826 -27.049,7.25 v 0 c -15.244,-3.919 -24.426,-19.452 -20.506,-34.696 v 0 c 1.643,-6.393 5.33,-11.719 10.179,-15.461 v 0 c 0.002,-0.329 0.008,-0.661 0.017,-0.994 v 0 c -9.024,3.108 -19.028,3.698 -28.963,1.145 v 0 C 450.492,86.754 438.316,75.525 432.41,61.466 v 0 c -2.908,0.87 -6.08,0.985 -9.233,0.175 v 0 C 413.938,59.264 408.371,49.849 410.748,40.61 v 0 c 1.059,-4.121 3.519,-7.508 6.737,-9.788 v 0 C 406.464,27.538 398.823,18.098 399.249,0 v 0 h 82.821 l 84.86,21.814 V 179.152 C 546.922,172.379 533.628,153.987 532.723,133.6"
         transform="matrix(1.3333333,0,0,-1.3333333,0,377.95333)"
         style="display:inline;fill:url(#linearGradient283);stroke:none"
         inkscape:export-filename="..\..\Users\alban\html_files\2.svg"
         inkscape:export-xdpi="96"
         inkscape:export-ydpi="96" />
    </g>
  </g>
</svg>
