<?xml version="1.0" encoding="UTF-8" standalone="no"?>
<!-- Created with Inkscape (http://www.inkscape.org/) -->

<svg
   version="1.1"
   id="svg1"
   width="755.90668"
   height="377.95334"
   viewBox="0 0 755.90668 377.95334"
   sodipodi:docname="vectorstock_22125911.ai"
   xmlns:inkscape="http://www.inkscape.org/namespaces/inkscape"
   xmlns:sodipodi="http://sodipodi.sourceforge.net/DTD/sodipodi-0.dtd"
   xmlns="http://www.w3.org/2000/svg"
   xmlns:svg="http://www.w3.org/2000/svg">
  <defs
     id="defs1">
    <linearGradient
       x1="0"
       y1="0"
       x2="1"
       y2="0"
       gradientUnits="userSpaceOnUse"
       gradientTransform="matrix(68.813561,145.7668,145.7668,-68.813561,197.69328,-34.75251)"
       spreadMethod="pad"
       id="linearGradient292">
      <stop
         style="stop-opacity:1;stop-color:#000071"
         offset="0"
         id="stop288" />
      <stop
         style="stop-opacity:1;stop-color:#000071"
         offset="0.235257"
         id="stop289" />
      <stop
         style="stop-opacity:1;stop-color:#820fcb"
         offset="0.85566072"
         id="stop290" />
      <stop
         style="stop-opacity:1;stop-color:#820fcb"
         offset="0.93877"
         id="stop291" />
      <stop
         style="stop-opacity:1;stop-color:#820fcb"
         offset="1"
         id="stop292" />
    </linearGradient>
  </defs>
  <sodipodi:namedview
     id="namedview1"
     pagecolor="#ffffff"
     bordercolor="#999999"
     borderopacity="1"
     inkscape:showpageshadow="0"
     inkscape:pageopacity="0"
     inkscape:pagecheckerboard="0"
     inkscape:deskcolor="#d1d1d1">
    <inkscape:page
       x="0"
       y="0"
       inkscape:label="1"
       id="page1"
       width="755.90668"
       height="377.95334"
       margin="0"
       bleed="0"
       inkscape:export-filename="..\..\Users\alban\html_files\img3\5.svg"
       inkscape:export-xdpi="96"
       inkscape:export-ydpi="96" />
  </sodipodi:namedview>
  <g
     id="g1"
     inkscape:groupmode="layer"
     inkscape:label="1">
    <g
       id="group-MC0"
       style="display:inline">
      <path
         id="path292"
         d="m 34.421,103.664 c -2.382,1.422 -4.984,2.567 -7.777,3.365 v 0 c -9.4,2.694 -19.018,0.975 -26.643,-3.93 v 0 L 0.001,0 h 382.926 c -3.975,6.09 -9.07,11.634 -15.281,16.799 v 0 c -9.767,8.123 -33.781,8.447 -33.781,8.447 v 0 c 0,0 5.204,33.065 -22.377,40.346 v 0 c -11.447,3.023 -23.086,0.052 -31.18,-7.447 v 0 c -0.419,24.758 -16.841,47.388 -41.881,54.562 v 0 c -20.812,5.963 -42.226,-0.287 -56.596,-14.498 v 0 c -3.475,3.01 -7.643,5.328 -12.352,6.676 v 0 c -11.552,3.31 -23.432,-0.045 -31.538,-7.786 v 0 c -6.526,15.675 -19.861,28.345 -37.452,33.385 v 0 c -5.319,1.524 -10.673,2.25 -15.943,2.249 v 0 C 63.95,132.732 44.698,121.631 34.421,103.664"
         transform="matrix(1.3333333,0,0,-1.3333333,0,377.95333)"
         style="display:inline;fill:url(#linearGradient292);stroke:none"
         inkscape:export-filename="..\..\Users\alban\html_files\4.svg"
         inkscape:export-xdpi="96"
         inkscape:export-ydpi="96" />
    </g>
  </g>
</svg>
