<?xml version="1.0" encoding="UTF-8" standalone="no"?>
<!-- Created with Inkscape (http://www.inkscape.org/) -->

<svg
   version="1.1"
   id="svg1"
   width="755.90668"
   height="377.95334"
   viewBox="0 0 755.90668 377.95334"
   sodipodi:docname="vectorstock_22125911.ai"
   xmlns:inkscape="http://www.inkscape.org/namespaces/inkscape"
   xmlns:sodipodi="http://sodipodi.sourceforge.net/DTD/sodipodi-0.dtd"
   xmlns="http://www.w3.org/2000/svg"
   xmlns:svg="http://www.w3.org/2000/svg">
  <defs
     id="defs1">
    <linearGradient
       x1="0"
       y1="0"
       x2="1"
       y2="0"
       gradientUnits="userSpaceOnUse"
       gradientTransform="matrix(-13.12234,126.08599,-126.08599,-13.12234,504.01465,-36.500526)"
       spreadMethod="pad"
       id="linearGradient296">
      <stop
         style="stop-opacity:1;stop-color:#3a008f"
         offset="0"
         id="stop293" />
      <stop
         style="stop-opacity:1;stop-color:#3a008f"
         offset="0.282636"
         id="stop294" />
      <stop
         style="stop-opacity:1;stop-color:#3a008f"
         offset="0.51813694"
         id="stop295" />
      <stop
         style="stop-opacity:1;stop-color:#ad08dc"
         offset="1"
         id="stop296" />
    </linearGradient>
  </defs>
  <sodipodi:namedview
     id="namedview1"
     pagecolor="#ffffff"
     bordercolor="#999999"
     borderopacity="1"
     inkscape:showpageshadow="0"
     inkscape:pageopacity="0"
     inkscape:pagecheckerboard="0"
     inkscape:deskcolor="#d1d1d1">
    <inkscape:page
       x="0"
       y="0"
       inkscape:label="1"
       id="page1"
       width="755.90668"
       height="377.95334"
       margin="0"
       bleed="0"
       inkscape:export-filename="..\..\Users\alban\html_files\img3\6.svg"
       inkscape:export-xdpi="96"
       inkscape:export-ydpi="96" />
  </sodipodi:namedview>
  <g
     id="g1"
     inkscape:groupmode="layer"
     inkscape:label="1">
    <g
       id="group-MC0"
       style="display:inline">
      <path
         id="path296"
         d="m 513.801,75.16 c 0,-1.307 0.122,-2.586 0.346,-3.83 v 0 C 501.336,69.81 493.274,63.806 488.928,53.465 v 0 c -2.319,1.662 -5.156,2.645 -8.227,2.645 v 0 c -7.049,10e-4 -12.893,-5.153 -13.971,-11.898 v 0 c -4.874,4.206 -10.564,7.495 -16.798,9.599 v 0 c -1.524,18.271 -16.832,32.629 -35.5,32.632 v 0 C 394.75,86.448 378.791,70.496 378.785,50.815 v 0 c 0,-0.758 0.028,-1.512 0.074,-2.258 v 0 c -0.152,-0.051 -0.305,-0.098 -0.455,-0.149 v 0 c -3.951,5.094 -10.125,8.378 -17.072,8.379 v 0 c -11.93,0.002 -21.604,-9.666 -21.605,-21.598 v 0 c -0.002,-4.429 1.332,-8.546 3.618,-11.974 v 0 c -5.825,4.152 -12.954,6.596 -20.654,6.597 v 0 C 305.535,29.816 291.206,16.462 287.811,0 V 0 H 566.93 v 93.95 c -4.855,-1.704 -9.229,-4.428 -12.866,-7.917 v 0 c -3.746,6.412 -10.695,10.723 -18.656,10.725 v 0 C 523.479,96.76 513.805,87.09 513.801,75.16"
         transform="matrix(1.3333333,0,0,-1.3333333,0,377.95333)"
         style="display:inline;fill:url(#linearGradient296);stroke:none"
         inkscape:export-filename="..\..\Users\alban\html_files\5.svg"
         inkscape:export-xdpi="96"
         inkscape:export-ydpi="96" />
    </g>
  </g>
</svg>
