<?xml version="1.0" encoding="UTF-8" standalone="no"?>
<!-- Created with Inkscape (http://www.inkscape.org/) -->

<svg
   version="1.1"
   id="svg1"
   width="755.90668"
   height="377.95334"
   viewBox="0 0 755.90668 377.95334"
   sodipodi:docname="vectorstock_22125911.ai"
   xmlns:inkscape="http://www.inkscape.org/namespaces/inkscape"
   xmlns:sodipodi="http://sodipodi.sourceforge.net/DTD/sodipodi-0.dtd"
   xmlns="http://www.w3.org/2000/svg"
   xmlns:svg="http://www.w3.org/2000/svg">
  <defs
     id="defs1">
    <linearGradient
       x1="0"
       y1="0"
       x2="1"
       y2="0"
       gradientUnits="userSpaceOnUse"
       gradientTransform="matrix(-22.553885,100.66013,100.66013,22.553885,406.20801,-58.202099)"
       spreadMethod="pad"
       id="linearGradient1037">
      <stop
         style="stop-opacity:1;stop-color:#220071"
         offset="0"
         id="stop1035" />
      <stop
         style="stop-opacity:1;stop-color:#b529d5"
         offset="0.95248981"
         id="stop1036" />
      <stop
         style="stop-opacity:1;stop-color:#b529d5"
         offset="1"
         id="stop1037" />
    </linearGradient>
  </defs>
  <sodipodi:namedview
     id="namedview1"
     pagecolor="#ffffff"
     bordercolor="#999999"
     borderopacity="1"
     inkscape:showpageshadow="0"
     inkscape:pageopacity="0"
     inkscape:pagecheckerboard="0"
     inkscape:deskcolor="#d1d1d1">
    <inkscape:page
       x="0"
       y="0"
       inkscape:label="1"
       id="page1"
       width="755.90668"
       height="377.95334"
       margin="0"
       bleed="0"
       inkscape:export-filename="vectorstock_22125911.ai67.svg"
       inkscape:export-xdpi="96"
       inkscape:export-ydpi="96" />
  </sodipodi:namedview>
  <g
     id="g1"
     inkscape:groupmode="layer"
     inkscape:label="1">
    <g
       id="group-MC0"
       style="display:inline">
      <path
         id="path1037"
         d="m 326.859,33.279 c -7.841,-5.568 -12.787,-13.697 -14.51,-22.443 v 0 c -5.929,1.422 -12.419,0.379 -17.784,-3.432 v 0 C 291.745,5.401 289.544,2.851 288.002,0 v 0 h 271.456 c -4.629,6.039 -11.199,10.67 -19.104,12.834 v 0 c -6.587,1.803 -13.243,1.65 -19.365,-0.092 v 0 c 0.426,3.975 -0.524,8.113 -3.02,11.627 v 0 c -5.426,7.637 -16.017,9.431 -23.658,4.004 v 0 c -3.382,-2.402 -5.612,-5.817 -6.584,-9.539 v 0 c -5.476,0.806 -10.884,-0.517 -15.268,-3.428 v 0 c -4.621,7.625 -12.057,13.561 -21.334,16.1 v 0 C 432.96,36.479 414.242,26.645 407.791,9.328 v 0 c -0.646,4.182 -1.735,7.749 -3.22,9.84 v 0 c -5.426,7.639 -16.019,9.431 -23.657,4.006 v 0 c -0.637,-0.452 -1.228,-0.941 -1.781,-1.462 v 0 c -0.594,1.036 -1.24,2.053 -1.944,3.046 v 0 c -7.039,9.908 -18.164,15.194 -29.457,15.195 v 0 c -7.231,0 -14.53,-2.167 -20.873,-6.674"
         transform="matrix(1.3333333,0,0,-1.3333333,0,377.95333)"
         style="display:inline;fill:url(#linearGradient1037);stroke:none" />
    </g>
  </g>
</svg>
